<?xml version="1.0" encoding="utf-8"?>
<!-- Generator: Adobe Illustrator 19.2.1, SVG Export Plug-In . SVG Version: 6.00 Build 0)  -->
<svg version="1.1" id="layer" xmlns="http://www.w3.org/2000/svg" xmlns:xlink="http://www.w3.org/1999/xlink" x="0px" y="0px"
	 viewBox="0 0 652 652" style="enable-background:new 0 0 652 652;" xml:space="preserve">
<style type="text/css">
	.st0{fill:#BD081C;}
</style>
<g id="Layer_2">
	<g id="svg2">
		<g id="g10">
			<g id="g12">
				<g>
					<g id="g14">
						<g id="g16">
							<path id="path22" class="st0" d="M333.7,317.9c6.4,0,8.6,3.9,8.6,8.5c0,7.8-6,12.5-15.5,12.5c-3.7-0.1-7.4-0.7-10.9-1.7
								C317.1,330,321.7,317.9,333.7,317.9 M470.2,317.9c5.8,0,8.6,3.9,8.6,8.5c0,7.8-6,12.5-15.5,12.5c-3.7-0.1-7.4-0.7-10.9-1.7
								C453.6,330,458.8,317.9,470.2,317.9 M599.6,318.5h14.5c2,0,3.2-0.8,3.6-2.7c0.7-2.7,1.8-7.4,2.2-8.6c0.4-1.7-0.5-2.9-2.4-2.9
								h-14.4c1-4.1,5.1-17.5,5.1-26.2c0-17.4-14.8-32.2-35.8-32.2c-23.7,0-39.1,15.9-39.1,38.2c0.1,6.7,2,13.2,5.5,18.9
								c-1.3-0.1-2.6-0.1-3.9-0.1c-18,0-29.3,9.8-29.3,24c0,13.3,10.5,18.5,20.4,22c8.8,3.1,16.9,4.5,16.9,11.4
								c0,4.6-4.4,7.3-13.2,7.3c-10.3,0-16-4.9-17.5-6.7c1.6-1.4,2.5-3.5,2.4-5.7c0-4.3-3-7.7-8.6-7.7c-4.7,0-8.7,3.8-9.7,8.9
								c-7.6,6.2-15.8,10.2-27.5,10.2c-11.6,0-17.5-6-17.5-18.8c2.7,0.8,9.8,1.8,14.4,1.8c19.5,0,32.8-8.9,32.8-26.7
								c0-9.6-8.4-19.6-25-19.6h-0.1c-21.8,0-34.1,13.8-39.4,29.1c-1.5-0.4-3-0.7-4.5-1.1c1.4-3.7,2.1-7.7,2.1-11.6
								c0-7.5-4.7-16.4-17.1-16.4c-8.7,0-16.9,5.7-22.6,14.2c1.4-5.6,2.4-9.2,2.4-9.5c0.4-1.5-0.2-3.1-2.5-3.1h-12.8
								c-1.8,0-3.1,0.6-3.6,2.7c-0.3,1.4-4.7,18.7-9,35.4c-2.7,10.5-16.6,23.5-34.1,23.5c-11.5,0-17.5-6.4-17.5-19.2
								c3,1.2,9.7,2.2,14.4,2.2c20.3,0,32.9-8.9,32.9-26.7c0-9.6-8.4-19.6-25-19.6h-0.1c-24.6,0-39.6,19.1-42.2,40.8
								c-1.1,9-8.7,21.4-16.9,21.4c-4,0-6.3-2.5-6.3-6.8c0-3.7,2.6-12.7,5.5-24.1c1-3.8,2.4-9.6,4-16h13.4c2,0,3.1-0.8,3.6-2.7
								c0.6-2.7,1.8-7.4,2.2-8.6c0.4-1.7-0.5-2.9-2.4-2.9h-13.2c0,0,6-24.1,6.2-24.8c0.6-2.5-1.5-3.9-3.6-3.4c0,0-10.2,2-12.1,2.4
								c-1.9,0.4-3.4,1.5-4.1,4.2l-5.4,21.7h-10.5c-2,0-3.2,0.8-3.6,2.7c-0.7,2.7-1.8,7.4-2.2,8.6c-0.4,1.7,0.5,2.9,2.4,2.9h10.3
								c-0.1,0.3-3.7,14.2-6.7,26.7c-1.4,6-6.1,20.1-13.7,20.1c-4.6,0-6.5-2.3-6.5-7.3c0-7.8,7.7-27.3,7.7-36.1
								c0-11.8-6.3-18.7-19.3-18.7c-8.2,0-16.7,5.3-20.3,9.9c0,0,1.1-3.8,1.5-5.3c0.4-1.2-0.3-2.5-1.5-2.9c-0.3-0.1-0.7-0.1-1-0.1
								h-12.6c-2.7,0-3.4,1.5-3.8,3c-0.2,0.6-4.7,18.6-9.1,35.9c-3,11.9-10.3,21.8-18.1,21.8c-4,0-5.8-2.5-5.8-6.8
								c0-3.7,2.4-12.8,5.2-24.1c3.5-13.8,6.5-25.1,6.8-26.5c0.4-1.7-0.3-3.1-2.5-3.1h-12.8c-2.3,0-3.2,1.2-3.6,2.9
								c0,0-3.6,13.6-7.4,28.8c-2.8,11-5.8,22.2-5.8,27.5c0,9.4,4.2,16.5,15.8,16.5c8.9,0,16-4.5,21.4-10.3
								c-0.8,3.1-1.3,5.1-1.4,5.3c-0.5,1.8,0.1,3.4,2.2,3.4h13.1c2.3,0,3.1-0.9,3.6-2.9c0.5-2,10.2-40.3,10.2-40.3
								c2.6-10.3,9-17.2,18-17.2c4.3,0,7.9,2.8,7.5,8.3c-0.5,6-7.7,27.7-7.7,37.2c0,7.2,2.7,16.5,16.2,16.5c9.2,0,16.1-4.4,21-10.2
								c1.8,6.1,6.6,10.2,15.4,10.2c14.6,0,23.4-8.7,28.6-17.4c4.3,10.1,14.4,17.4,29.1,17.4c13.2,0.1,25.9-5.3,34.9-15
								c-1.5,5.8-2.5,9.8-2.6,10.1c-0.5,1.8,0.3,3.3,2.5,3.3h12.9c1.7,0.1,3.2-1.1,3.5-2.8c0.2-0.9,2.1-8.1,4.7-18.4
								c5.1-19.6,13.2-40,25.4-40c4.3,0,6.1,2.4,6.1,6.2c0,1.4-0.3,2.9-1,4.2c-5.9-1.2-10.7,1.7-10.7,8c0,4.1,4.4,7.9,10.2,7.9
								c4.5,0,8.2-1.1,11.1-3.1c2.7,0.6,5.7,1.2,8.7,1.9c-0.4,2.8-0.7,5.7-0.7,8.6c0,15.8,11.8,29.2,32,29.2
								c15.8,0,26-5.3,35.5-13.2c4.5,7.4,15.9,13.3,30.8,13.3c20.4,0,32.1-10.6,32.1-24.7c0-12.7-10.5-17.4-21.2-21.3
								c-8.8-3.2-16.1-4.9-16.1-11.1c0-5.1,4-7.4,10.8-7.4c3.2,0,6.5,0.5,9.6,1.5c1.8,4.4,5.4,9.3,11.6,9.3c5.3,0,7.6-4.2,7.6-8
								c0-10.9-18.2-12.1-18.2-35.6c0-14.6,8.3-26.6,25.4-26.6c11.9,0,19.7,7.5,19.7,19.7c0,10-6.1,27.9-6.1,27.9H574
								c-2,0-3.2,0.8-3.6,2.7c-0.7,2.7-1.8,7.4-2.2,8.6c-0.4,1.7,0.5,2.9,2.4,2.9h10.1c0,0-10.4,38.5-10.4,45.5
								c0,9.4,5.3,16.5,16.9,16.5c16.4,0,26.7-10.6,31.1-26.1c0.3-0.8,0-1.7-0.8-2.1c-0.2-0.1-0.5-0.1-0.7-0.1h-6.3
								c-1.1,0-2.1,0.8-2.3,1.9c-1.4,5.5-4.9,11.3-11.8,11.3c-4,0-6.3-2.5-6.3-6.8c0-3.7,2.4-12.3,5.5-24.1
								C597.1,328.9,599.6,318.5,599.6,318.5"/>
							<path id="path24" class="st0" d="M172,284.7c-0.5,6.8-6.1,12.2-12.6,12.2c-6.5,0-11.4-5.5-11-12.2
								c0.5-6.8,6.1-12.2,12.6-12.2C167.5,272.5,172.4,278,172,284.7"/>
							<path id="path26" class="st0" d="M80.9,245.6c-39.8,0-60.8,26.7-60.8,55.7c0,13.5,7.2,30.3,18.7,35.7
								c1.8,0.8,2.7,0.5,3.1-1.2c0.3-1.3,1.9-7.5,2.6-10.4c0.3-0.9,0-1.9-0.6-2.7c-3.8-4.6-6.8-13.1-6.8-21
								c0-20.3,15.4-39.9,41.6-39.9c22.6,0,38.4,15.4,38.4,37.4c0,24.9-12.6,42.1-28.9,42.1c-9,0-15.8-7.5-13.6-16.6
								C77,313.7,82,301.9,82,294c0-7.1-3.8-13-11.6-13c-9.3,0-16.7,9.6-16.7,22.4c-0.1,4.7,0.9,9.4,2.8,13.7
								c0,0-9.1,38.6-10.8,45.8c-2.8,12.2,0.4,32,0.7,33.7c0,0.5,0.5,0.9,1,0.9c0.3,0,0.6-0.2,0.7-0.4c0.9-1.2,11.9-17.7,15-29.6
								c1.1-4.3,5.7-21.9,5.7-21.9c3,5.7,11.8,10.6,21.1,10.6c27.8,0,47.8-25.5,47.8-57.3C137.6,268.4,112.8,245.6,80.9,245.6"/>
						</g>
					</g>
				</g>
			</g>
		</g>
	</g>
</g>
</svg>
